<svg width="512" height="512" viewBox="0 0 512 512" fill="none" xmlns="http://www.w3.org/2000/svg">
<g clip-path="url(#clip0_268_317)">
<path d="M288.702 127.53C319.932 127.53 342.222 135.397 355.572 151.131C365.347 163.051 370.234 177.951 370.234 195.831C370.234 202.268 369.638 209.062 368.446 216.214L354.5 295.958C349.732 322.897 338.05 344.472 319.455 360.683C300.86 376.894 276.782 385 247.22 385H143.16L188.574 127.53H288.702ZM266.173 183.315H242.929L217.54 329.215H251.512C262.716 329.215 271.418 326.235 277.616 320.275C284.053 314.077 288.463 304.064 290.847 290.237L301.218 231.591C302.171 226.346 302.648 221.578 302.648 217.287C302.648 194.639 290.49 183.315 266.173 183.315Z" fill="black"/>
<path d="M166.779 265.785L219.036 265.785L218.298 320.881L101 320.881L166.779 265.785Z" fill="black"/>
<path d="M137.78 308.775L218.412 302.272L217.675 357.368L117.975 354.042L137.78 308.775Z" fill="black"/>
</g>
<defs>
<clipPath id="clip0_268_317">
<rect width="512" height="512" fill="white"/>
</clipPath>
</defs>
</svg>
